<?xml version="1.0" standalone="no"?>
<!DOCTYPE svg PUBLIC "-//W3C//DTD SVG 1.1//EN" "http://www.w3.org/Graphics/SVG/1.1/DTD/svg11.dtd" >
<!--
2013-9-30: Created.
-->
<svg>
<metadata>
Created by iconfont
</metadata>
<defs>

<font id="iconfont" horiz-adv-x="1024" >
  <font-face
    font-family="iconfont"
    font-weight="500"
    font-stretch="normal"
    units-per-em="1024"
    ascent="896"
    descent="-128"
  />
    <missing-glyph />
    
    <glyph glyph-name="mima1" unicode="&#58996;" d="M819.202843 486.3822 802.152741 486.3822l0 0L648.492911 486.3822l0 0L358.424846 486.3822 358.424846 657.069881c0 56.543593 68.782632 119.445899 153.555993 119.445899 84.806737 0 153.667246-62.902306 153.667246-119.445899l0-41.949704 0-0.735504 0-0.745393 0-7.80129 0.602001 0c4.080504-28.947966 28.987523-51.192336 59.038127-51.192336 30.161857 0 54.989763 22.245606 59.14938 51.192336l0.678642 0 0 51.231892C785.115 789.020589 662.780237 896 511.98084 896 361.219763 896 238.919612 789.020589 238.919612 657.069881l0-170.687681L204.758836 486.3822c-56.505273 0-102.346351-45.85344-102.346351-102.390853l0-409.630162c0-56.543593 45.841079-102.374783 102.346351-102.374783l614.444007 0c56.58315 0 102.384672 45.831189 102.384672 102.374783L921.587515 383.991347C921.583807 440.53494 875.779812 486.3822 819.202843 486.3822L819.202843 486.3822zM563.222621 108.334222l0-46.67671c0-29.326226-22.939081-53.084869-51.241782-53.084869-28.231004 0-51.215823 23.758643-51.215823 53.084869l0 46.67671c-40.324178 18.891953-68.291884 59.494264-68.291884 106.538108 0 65.134778 53.553367 117.947696 119.507707 117.947696 66.019856 0 119.501526-52.812918 119.501526-117.947696C631.482366 167.827249 603.586356 127.226175 563.222621 108.334222L563.222621 108.334222zM563.222621 108.334222"  horiz-adv-x="1024" />

    
    <glyph glyph-name="zuzhijiegou" unicode="&#58972;" d="M701.061876 325.748503c-51.097804 0-91.976048-42.922156-91.976048-96.063872s40.878244-96.063872 91.976048-96.063873 91.976048 42.922156 91.976048 96.063873-40.878244 96.063872-91.976048 96.063872zM515.065868 896c-282.05988 0-510.978044-228.918164-510.978044-510.978044s228.918164-510.978044 510.978044-510.978044 510.978044 228.918164 510.978044 510.978044-228.918164 510.978044-510.978044 510.978044z m-6.131736-147.161677c71.536926 0 130.810379-61.317365 130.810379-138.986028 0-75.62475-59.273453-138.986028-130.810379-138.986028-71.536926 0-130.810379 61.317365-130.81038 138.986028-2.043912 75.62475 57.229541 138.986028 130.81038 138.986028z m-198.259481-656.095808c-71.536926 0-130.810379 61.317365-130.81038 138.986028 0 75.62475 59.273453 138.986028 130.81038 138.986028 71.536926 0 130.810379-61.317365 130.810379-138.986028 2.043912-75.62475-57.229541-138.986028-130.810379-138.986028z m198.259481 210.522954c-32.702595 0-61.317365 30.658683-61.317366 65.40519 0 34.746507 28.61477 65.40519 61.317366 65.405189S572.295409 403.417166 572.295409 368.670659c-2.043912-34.746507-30.658683-65.40519-63.361277-65.40519z m196.215569-210.522954c-71.536926 0-130.810379 61.317365-130.81038 138.986028 0 75.62475 59.273453 138.986028 130.81038 138.986028 71.536926 0 130.810379-61.317365 130.810379-138.986028 0-75.62475-59.273453-138.986028-130.810379-138.986028z m-196.215569 421.045908c51.097804 0 91.976048 42.922156 91.976048 96.063872s-40.878244 96.063872-91.976048 96.063873-91.976048-42.922156-91.976048-96.063873c0-51.097804 40.878244-96.063872 91.976048-96.063872z m-196.215569-188.03992c-51.097804 0-91.976048-42.922156-91.976048-96.063872s40.878244-96.063872 91.976048-96.063873 91.976048 42.922156 91.976048 96.063873-40.878244 96.063872-91.976048 96.063872z"  horiz-adv-x="1028" />

    
    <glyph glyph-name="chaxun" unicode="&#59009;" d="M513.261568 881.170432c275.27168 0 498.438144-223.154176 498.438144-498.436096C1011.699712 107.450368 788.533248-115.712 513.261568-115.712 237.9776-115.712 14.823424 107.450368 14.823424 382.734336 14.823424 658.016256 237.9776 881.170432 513.261568 881.170432z m-132.622336-348.227584v-30.148608h241.123328v30.148608H380.639232z m-0.79872-60.573696v-30.148608h241.12128v30.148608H379.840512z m-59.488256 121.348096h361.695232v-241.123328h30.13632V593.717248c0 16.646144-13.490176 30.138368-30.13632 30.138368H320.352256c-16.646144 0-30.138368-13.490176-30.138368-30.138368v-421.96992c0-16.646144 13.490176-30.13632 30.138368-30.13632h210.98496v30.13632h-210.98496v421.96992z m60.084224-241.907712v-30.138368h73.312256c0 10.46528 1.523712 20.588544 4.370432 30.138368H380.43648z m123.22816 60.274688h-123.82208v-30.138368h91.615232a105.90208 105.90208 0 0 0 32.206848 30.138368z m228.225024-242.57536l-69.12 68.29056c15.896576 18.468864 25.503744 42.496 25.503744 68.763648 0 58.261504-47.233024 105.498624-105.498624 105.498624-58.261504 0-105.484288-47.23712-105.484288-105.498624s47.222784-105.488384 105.484288-105.488384c21.100544 0 40.736768 6.193152 57.214976 16.850944l70.586368-69.728256c5.871616-5.894144 15.419392-5.894144 21.313536 0 5.881856 5.879808 5.881856 15.419392 0 21.311488z m-224.4608 137.05216c0-41.61536 33.734656-75.347968 75.347968-75.347968 41.617408 0 75.350016 33.732608 75.350016 75.347968s-33.732608 75.347968-75.350016 75.347968c-41.61536 0-75.347968-33.73056-75.347968-75.347968z"  horiz-adv-x="1024" />

    
    <glyph glyph-name="xinwen" unicode="&#58953;" d="M535.228606 390.314106m-435.875138 0a435.875138 435.875138 0 1 1 871.750277 0 435.875138 435.875138 0 1 1-871.750277 0ZM731.686682 653.661342v-0.057663 0.057663zM345.978414 518.499108h108.118254v-108.118254H345.978414V518.499108z m384.209029 98.142544c0 21.143125-17.145153 38.307499-38.365162 38.307499H294.888935A38.384383 38.384383 0 0 1 256.523773 616.622431v-460.497269c0-27.774378 19.91298-43.055092 47.7258-43.055092h477.738526c27.793599 0 51.185584 15.280713 51.185585 43.055092V524.938151h-102.96702V616.641652h-0.019221z m-101.679212-71.098564a19.221023 19.221023 0 0 0 19.297907-19.221023c0-10.610005-8.495692-19.221023-19.297907-19.221023h-84.956922a19.221023 19.221023 0 0 0-19.297907 19.221023c0 10.610005 8.495692 19.221023 19.297907 19.221023h84.956922z m0-129.357485a19.221023 19.221023 0 0 0 19.297907-19.221023c0-10.610005-8.495692-19.221023-19.297907-19.221023h-84.956922a19.221023 19.221023 0 0 0-19.297907 19.221023c0 10.610005 8.495692 19.221023 19.297907 19.221023h84.956922z m-164.666504 129.357485c10.610005 0 19.221023-8.630239 19.221023-19.221023v-126.301342c0-10.610005-8.630239-19.221023-19.221023-19.221023H337.521164c-10.610005 0-19.221023 8.630239-19.221023 19.221023V526.322065c0 10.610005 8.630239 19.221023 19.221023 19.221023h126.320563zM337.847921 195.432154a17.606457 17.606457 0 0 0-17.606457 17.702562c0 9.783501 8.092051 17.702562 17.606457 17.702562h292.35176c9.725838 0 17.606457-7.861398 17.606457-17.702562a17.779446 17.779446 0 0 0-17.606457-17.702562H337.847921z m-0.403641 76.134472a19.144139 19.144139 0 0 0-19.144139 19.221023c0 10.610005 8.476471 19.221023 19.144139 19.221023h291.217719c10.571563 0 19.144139-8.534134 19.144139-19.221023 0-10.610005-8.476471-19.221023-19.144139-19.221023H337.44428z m469.338939-115.460685c0-13.877579-10.917541-22.450155-24.79512-22.450155H756.847001c-13.877579 0-26.640338 8.572576-26.640337 22.450155V504.352435h76.595776v-348.246494h-0.019221z"  horiz-adv-x="1089" />

    
    <glyph glyph-name="jiuyebaozhang" unicode="&#58882;" d="M512.379 657.879c132.608-0.205 239.892-110.285 240.118-246.38-0.133-74.429-28.846-140.892-67.072-197.038 57.528 31.063 130.084 96.22 130.135 197.038-0.046 171.812-135.788 310.973-303.181 311.020h-0.901c-167.388-0.041-303.14-139.208-303.181-311.020 0.041-100.818 72.581-165.975 130.135-197.038-38.221 56.151-66.954 122.609-67.072 197.038 0.23 136.1 107.515 246.18 240.113 246.38h0.906zM511.524 889.006c-257.162 0-465.469-213.74-465.51-477.394 0-70.733 15.037-137.933 41.928-198.323 53.985-121.032 155.822-194.58 280.714-227.988l-8.474 17.971c-95.37 47.939-172.503 141.88-215.045 237.67-23.107 51.988-35.968 109.778-36.081 170.675 0.358 227.978 180.209 412.319 402.468 412.795 222.208-0.471 402.012-184.812 402.396-412.795-0.297-169.943-100.301-336.348-243.231-407.47l-7.26-19.553c182.451 57.482 313.528 217.928 313.559 427.023-0.046 263.654-208.399 477.389-465.464 477.389zM646.41 266.445c13.358-168.735-77.425-376.136-77.425-376.136s-23.014-11.31-57.196-11.31c-34.089 0-57.728 11.31-57.728 11.31s-90.834 207.401-77.476 376.136c0 0 21.412 70.943 135.977 70.943 114.56 0 133.847-70.943 133.847-70.943zM613.97 477.532c0-58.056-45.891-105.129-102.497-105.129-56.556 0-102.446 47.073-102.446 105.129 0 58.040 45.891 105.108 102.446 105.108 56.607 0 102.497-47.068 102.497-105.108z"  horiz-adv-x="1024" />

    
    <glyph glyph-name="chazhao" unicode="&#58935;" d="M860.672 4.096c-7.168 0-14.336 3.072-19.456 8.192l-166.4 166.4c-1.024 1.024-2.048 1.024-3.072 1.024-1.024 0-2.048-0.512-2.56-1.024-58.368-48.64-132.608-75.776-208.896-75.776-180.224 0-326.656 146.432-326.656 326.656 0 180.224 146.432 326.656 326.656 326.656s326.656-146.432 326.656-326.656c0-74.752-26.112-148.48-73.728-206.336-1.536-1.536-1.536-4.096 0.512-5.632l166.912-166.912c5.12-5.12 8.192-12.288 8.192-19.456s-3.072-14.336-8.192-19.456c-5.632-4.608-12.288-7.68-19.968-7.68zM459.776 701.952c-149.504 0-271.36-121.856-271.36-271.36s121.856-271.36 271.36-271.36 271.36 121.856 271.36 271.36c0.512 149.504-121.344 271.36-271.36 271.36z"  horiz-adv-x="1024" />

    
    <glyph glyph-name="chazhao1" unicode="&#58900;" d="M827.5968 503.3984C827.5968 720.213333 649.966933 896 430.8992 896 211.7632 896 34.133333 720.213333 34.133333 503.3984c0-216.8832 177.629867-392.669867 396.765867-392.669867 219.136 0 396.6976 175.786667 396.6976 392.669867z m-396.6976-309.930667c-172.987733 0-313.207467 138.717867-313.207467 309.930667 0 171.144533 140.219733 309.930667 313.207467 309.930667 172.987733 0 313.207467-138.786133 313.207467-309.930667 0-171.2128-140.219733-309.930667-313.207467-309.930667z m520.738133-162.952533l-182.272 180.360533-88.610133-87.6544 182.272-180.360533c32.631467-32.290133 78.2336-49.698133 110.865067-17.476267 32.5632 32.290133 10.376533 72.840533-22.254934 105.130667z"  horiz-adv-x="1024" />

    
    <glyph glyph-name="icon-" unicode="&#58891;" d="M613.44 657.92c-0.179 19.192-15.69 34.702-34.865 34.88l-319.375 0c-0 0-0.001 0-0.001 0-19.328 0-35.017-15.578-35.198-34.863l-0-584.337h389.44zM487.36 158.080h-144c-8.837 0-16 7.163-16 16s7.163 16 16 16h144c8.837 0 16-7.163 16-16s-7.163-16-16-16zM487.36 297.92h-144c-8.837 0-16 7.163-16 16s7.163 16 16 16h144c8.837 0 16-7.163 16-16s-7.163-16-16-16zM487.36 437.76h-144c-8.837 0-16 7.163-16 16s7.163 16 16 16h144c8.837 0 16-7.163 16-16s-7.163-16-16-16zM487.36 577.6h-144c-8.837 0-16 7.163-16 16s7.163 16 16 16h144c8.837 0 16-7.163 16-16s-7.163-16-16-16zM512 896c-282.77 0-512-229.23-512-512s229.23-512 512-512c282.77 0 512 229.23 512 512 0 282.77-229.23 512-512 512zM865.92 41.6h-707.84c-8.837 0-16 7.163-16 16s7.163 16 16 16h33.92v584.32c0.182 36.976 30.198 66.88 67.199 66.88 0 0 0.001-0 0.001-0l320 0c36.864-0.181 66.7-30.017 66.88-66.864l0-584.336h153.92v352c-0.179 19.192-15.69 34.702-34.865 34.88l-32.015 0c-8.837 0-16 7.163-16 16s7.163 16 16 16h32c36.643-0.176 66.343-29.653 66.879-66.192l0.001-352.048h35.2c8.837 0 16-7.163 16-16s-7.163-16-16-16z"  horiz-adv-x="1024" />

    
    <glyph glyph-name="huiyiguanli" unicode="&#58892;" d="M13.322 705.085c0-21.657 8.92-43.202 24.228-58.51 15.33-15.31 36.854-24.229 58.511-24.229 21.668 0 43.193 8.92 58.512 24.228 15.319 15.309 24.238 36.854 24.238 58.511s-8.93 43.193-24.238 58.502c-15.32 15.319-36.844 24.238-58.512 24.238-21.657 0-43.182-8.92-58.51-24.238-15.32-15.31-24.229-36.834-24.229-58.502zM321.843 186.82l-143.032 69.027V555.735c0 18.954-15.37 34.325-34.325 34.325h-96.84c-18.954 0-34.324-15.37-34.324-34.325v-310.364c0-15.514 10.291-28.6 24.402-32.87l216.156-87.42v-193.33c0-18.955 15.36-34.335 34.325-34.335h20.95c18.965 0 34.325 15.38 34.325 34.334V154.931c0 14.48-8.96 26.84-21.637 31.888zM845.19 705.085c0-21.657 8.92-43.202 24.228-58.51 15.319-15.31 36.854-24.229 58.522-24.229 21.657 0 43.192 8.92 58.51 24.228 15.32 15.309 24.229 36.854 24.229 58.511s-8.92 43.193-24.228 58.502c-15.32 15.319-36.854 24.238-58.511 24.238-21.668 0-43.203-8.92-58.522-24.238-15.309-15.31-24.228-36.834-24.228-58.502zM976.364 590.05h-96.84c-18.975 0-34.335-15.37-34.335-34.324v-299.879L702.136 186.82c-12.667-5.049-21.627-17.408-21.627-31.888v-223.18c0-18.955 15.36-34.335 34.335-34.335h20.941c18.964 0 34.335 15.38 34.335 34.334V125.082L986.266 212.5c14.12 4.27 24.402 17.357 24.402 32.87V555.736c0.01 18.944-15.37 34.314-34.304 34.314zM461.322 290.355h-20.347c-18.964 0-34.324-15.36-34.324-34.345v-234.055c0-18.965 15.36-34.335 34.324-34.335h20.347c18.965 0 34.335 15.37 34.335 34.335V256.03c0 18.964-15.37 34.324-34.335 34.324z m121.703 0h-20.337c-18.964 0-34.324-15.36-34.324-34.345v-234.055c0-18.965 15.36-34.335 34.324-34.335h20.337c18.974 0 34.334 15.37 34.334 34.335V256.03c-0.01 18.964-15.38 34.324-34.334 34.324zM429.25 787.835c0-21.668 8.919-43.192 24.238-58.501 15.319-15.33 36.843-24.238 58.5-24.238 21.648 0 43.193 8.908 58.502 24.238 15.33 15.309 24.238 36.833 24.238 58.5 0 21.658-8.92 43.193-24.238 58.512C555.203 861.655 533.658 870.574 512 870.574c-21.668 0-43.192-8.909-58.501-24.228-15.32-15.329-24.248-36.854-24.248-58.511zM262.154 334.97h499.682c16.496 0 29.86 13.373 29.86 29.86s-13.364 29.88-29.86 29.88H625.11V632.412c0 18.985-15.36 34.345-34.335 34.345H433.203c-18.954 0-34.324-15.36-34.324-34.345v-237.701H262.154c-16.496 0-29.87-13.394-29.87-29.88s13.374-29.86 29.87-29.86z"  horiz-adv-x="1024" />

    
    <glyph glyph-name="dengdai" unicode="&#58912;" d="M512 896C229.262222 896 0 666.737778 0 384s229.262222-512 512-512 512 229.262222 512 512S794.737778 896 512 896zM292.565333 310.855111a73.144889 73.144889 0 1 0 0 146.289778 73.144889 73.144889 0 0 0 0-146.289778z m219.434667 0a73.144889 73.144889 0 1 0 0 146.289778 73.144889 73.144889 0 0 0 0-146.289778z m219.434667 0a73.144889 73.144889 0 1 0 0 146.289778 73.144889 73.144889 0 0 0 0-146.289778z"  horiz-adv-x="1024" />

    
    <glyph glyph-name="chaxun1" unicode="&#58883;" d="M247.296 701.44h508.416v-63.488h-508.416v63.488zM245.76 573.44h508.416v-63.488h-508.416v63.488zM120.32 829.44h762.368v-508.416h63.488v508.416c0 35.328-28.672 63.488-63.488 63.488h-762.368c-35.328 0-63.488-28.672-63.488-63.488v-889.344c0-35.328 28.672-63.488 63.488-63.488h444.928v63.488h-444.928v889.344zM246.784 319.488v-63.488h154.624c0 22.016 3.072 43.52 9.216 63.488h-163.84zM506.368 446.464h-260.608v-63.488h193.024c17.92 25.6 40.96 47.104 67.584 63.488zM987.648-65.024l-145.92 143.872c33.28 38.912 53.76 89.6 53.76 144.896 0 122.88-99.328 222.208-222.208 222.208s-222.208-99.328-222.208-222.208 99.328-222.208 222.208-222.208c44.544 0 86.016 13.312 120.832 35.328l148.992-146.944c12.288-12.288 32.768-12.288 45.056 0 11.776 12.8 11.776 32.768-0.512 45.056zM514.56 224.256c0 87.552 71.168 158.72 158.72 158.72s158.72-71.168 158.72-158.72-71.168-158.72-158.72-158.72c-87.552-0.512-158.72 70.656-158.72 158.72z"  horiz-adv-x="1044" />

    
    <glyph glyph-name="dianhua" unicode="&#58920;" d="M512-128C229.23264-128 0 101.23264 0 384S229.23264 896 512 896s512-229.23264 512-512-229.23264-512-512-512z m158.208 219.42272v-0.04096c44.87168 0 94.08512 53.80096 105.3696 90.05056 7.18848 23.10144-1.90464 33.52576-7.10656 37.0688-36.06528 30.9248-99.59424 72.64256-124.416 77.96736l-1.7408 0.38912-1.80224-0.26624c-14.04928-2.08896-22.60992-11.63264-30.1056-20.02944-9.87136-11.0592-16.36352-17.18272-30.1056-15.21664-4.21888 0.59392-22.1184 7.9872-79.13472 76.4928l-24.28928 29.88032c-56.832 71.35232-60.416 90.68544-60.17024 94.94528 0.90112 14.00832 8.23296 18.88256 21.0944 26.33728 9.78944 5.59104 20.84864 12.00128 25.82528 25.31328l0.6144 1.65888v1.8432c-0.12288 25.35424-27.89376 96.0512-50.3808 136.704-2.4576 5.89824-9.54368 15.83104-29.0816 15.83104-39.71072 0-109.13792-40.1408-116.57216-87.69536-10.5472-67.46112 34.6112-171.008 120.7296-277.05344l31.80544-39.15776c86.13888-106.00448 178.29888-171.4176 246.53824-174.98112l2.92864-0.04096z"  horiz-adv-x="1024" />

    
    <glyph glyph-name="yonghu" unicode="&#58967;" d="M512 896C230.4 896 0 665.6 0 384s230.4-512 512-512 512 230.4 512 512-230.4 512-512 512zM238.933333 204.8c8.533333 25.6 42.666667 34.133333 68.266667 42.666667 25.6 8.533333 59.733333 25.6 85.333333 34.133333 8.533333 0 17.066667 8.533333 25.6 8.533333 8.533333 8.533333 17.066667 25.6 17.066667 42.666667h8.533333c0 17.066667-8.533333 17.066667-17.066666 25.6v42.666667h-8.533334c-17.066667 8.533333-17.066667 51.2-17.066666 68.266666 0 8.533333 8.533333 8.533333 8.533333 25.6-17.066667 68.266667 8.533333 110.933333 42.666667 119.466667 25.6 8.533333 68.266667 25.6 119.466666 0l8.533334-8.533333H597.333333c8.533333-8.533333 17.066667-25.6 17.066667-25.6 8.533333-17.066667 8.533333-17.066667 8.533333-42.666667 0-8.533333-8.533333-42.666667 0-51.2 0-8.533333 0-8.533333 8.533334-17.066667s0-25.6 0-42.666666c0-8.533333 0-17.066667-8.533334-25.6-17.066667 0-25.6 0-25.6-8.533334-8.533333-8.533333-8.533333-17.066667-8.533333-34.133333 0-8.533333-17.066667-17.066667-17.066667-34.133333h17.066667c0-8.533333 8.533333-25.6 25.6-34.133334 8.533333 0 17.066667 0 25.6-8.533333 25.6-8.533333 59.733333-25.6 85.333333-34.133333 25.6-8.533333 51.2-17.066667 68.266667-42.666667 0-42.666667-34.133333-85.333333-85.333333-85.333333H332.8c-59.733333 0-93.866667 42.666667-93.866667 85.333333z"  horiz-adv-x="1024" />

    
    <glyph glyph-name="paiming" unicode="&#58884;" d="M74.352 305.094h264.54v-337.711H74.353z m312.383 227.955h264.54v-565.666h-264.54z m309.569-123.827h264.54v-441.84h-264.54z m-587.17-51.455l74.394 39.114 74.396-39.114-14.208 82.84 60.187 58.67-83.176 12.087-37.199 75.37-37.197-75.37-83.175-12.086 60.186-58.671zM444.61 571.651l74.395 39.114 74.395-39.114-14.208 82.84 60.188 58.67-83.177 12.087-37.198 75.37-37.198-75.37-83.176-12.086 60.188-58.671z m309.569-132.27l74.395 39.114 74.395-39.114-14.209 82.84 60.188 58.67-83.176 12.087-37.198 75.37-37.198-75.37-83.177-12.087 60.188-58.67z"  horiz-adv-x="1024" />

    
    <glyph glyph-name="shenfenzhenghao" unicode="&#58881;" d="M919.187 3.187H106.813c-56.104 0-101.563 45.46-101.563 101.563V663.283c0 56.07 45.458 101.529 101.563 101.529h812.374c56.072 0 101.563-45.459 101.563-101.529v-558.532c0-56.104-45.491-101.564-101.563-101.564zM521.199 208.1c0 81.991-59.642 150.56-139.121 167.387 46.484 16.433 80.007 59.18 80.007 109.697 0 64.832-54.484 117.399-121.268 117.399-66.849 0-121.333-52.567-121.333-117.399 0-51.575 34.979-94.984 83.049-110.589-77.826-18.15-135.749-85.761-135.749-166.495v-21.522h354.414V208.1z m334.114 331.899H591.619v-50.055h263.693v50.055z m0-125.137H591.619v-50.054h263.693v50.054z m0-125.168H662.568v-50.055h192.745v50.055z"  horiz-adv-x="1024" />

    
    <glyph glyph-name="zhengcezhidu" unicode="&#58936;" d="M227.748571 659.693714v-26.733714c0-14.756571 11.904-26.733714 26.605715-26.733714h26.605714V18.285714H254.354286A53.321143 53.321143 0 0 0 201.142857 71.734857V659.693714A53.321143 53.321143 0 0 0 254.336 713.142857h478.756571a53.156571 53.156571 0 0 0 45.750858-26.733714H254.336c-14.683429 0-26.587429-11.958857-26.587429-26.715429zM733.092571 18.285714H307.529143V606.244571H493.714286v-243.913142l94.153143 71.259428 92.032-71.259428V606.244571H786.285714v-534.509714A53.321143 53.321143 0 0 0 733.092571 18.285714zM587.867429 469.229714l-67.547429-53.449143V632.96h132.973714v-217.179429z"  horiz-adv-x="1024" />

    
    <glyph glyph-name="tongzhi1" unicode="&#58966;" d="M512.037 896C229.214 896 0 666.761 0 384.019 0 101.238 229.214-128 512.037-128 794.714-128 1024 101.239 1024 384.019 1024 666.726 794.711 896 512.037 896z m40.228-793.438v-1.938c0-8.118-1.54-16.822-4.534-26.041-3.034-9.256-7.641-16.494-13.823-21.906-6.217-5.375-14.08-7.606-23.48-6.802-9.507 0.844-20.406 7.097-32.836 18.725a6191.242 6191.242 0 0 1-69.518 61.736 7374.972 7374.972 0 0 1-68.166 59.25 9586.482 9586.482 0 0 1-73.357 61.111 153.37 153.37 0 0 0-14.188-0.658c-3.84-0.438-7.936-0.62-12.178-0.62h-10.97c-11.591 0-21.026 3.513-28.267 10.567-7.316 7.097-10.97 15.581-10.97 25.42v162.2h0.619l-0.62 0.659c0 11.993 3.769 21.869 11.265 29.583 7.498 7.75 16.858 11.592 27.976 11.592h36.68c39.455 33.463 75.295 63.527 107.475 90.114a4846.425 4846.425 0 0 0 40.515 33.792 4896.762 4896.762 0 0 1 35.983 29.918 4082.802 4082.802 0 0 0 27.096 22.565c7.24 5.999 11.737 9.618 13.492 10.902 12.837 9.435 23.255 13.751 31.228 12.872 7.936-0.844 14.116-4.678 18.65-11.56 4.5-6.875 7.605-15.249 9.325-25.123 1.757-9.875 2.597-18.909 2.597-27.028V102.56l0.006 0.002z m87.8 167.319c-5.375 5.56-8.083 12.25-8.083 19.933 0 3.474 0.695 6.876 1.938 10.277h-0.659c2.195 4.789 4.719 9.255 7.75 13.57a253.37 253.37 0 0 1 8.629 13.167c2.819 4.534 5.194 9.69 7.13 15.434 1.937 5.814 2.852 12.8 2.852 20.92 0 7.715-0.914 14.482-2.852 20.296-1.974 5.742-4.314 11.006-7.13 15.766a226.025 226.025 0 0 1-8.629 13.53 56.302 56.302 0 0 0-7.096 13.495c-1.244 2.962-1.937 6.436-1.937 10.277 0 7.715 2.67 14.371 8.083 19.933 5.34 5.6 11.884 8.376 19.599 8.376 6.032 0 10.934-1.828 14.809-5.489 3.84-3.655 7.498-7.829 10.934-12.543 9.031-12.435 16.163-25.015 21.573-37.634 5.34-12.654 8.046-27.979 8.046-46.01 0-17.191-2.78-32.623-8.375-46.372-5.559-13.717-12.653-26.15-21.247-37.344-3.438-4.719-7.056-8.887-10.934-12.544-3.877-3.655-8.777-5.488-14.81-5.488-7.714 0.035-14.263 2.886-19.598 8.449h0.007z m185.623 31.524a246.466 246.466 0 0 0-23.513-55.954c-10.093-17.591-22.014-33.83-35.69-48.604-13.75-14.811-28.743-27.796-45.054-38.952-5.157-3.805-11.151-5.741-17.991-5.741-8.559 0-15.982 3.106-22.198 9.326-6.218 6.255-9.362 13.608-9.362 22.2 0 9.435 3.693 17.372 10.97 23.774 0.438 0.437 0.878 0.768 1.245 0.95a7.348 7.348 0 0 1 1.315 0.95l0.62 0.659c12.032 8.191 23.181 17.81 33.497 28.964 10.313 11.19 19.272 23.296 27.025 36.355 7.679 13.06 13.716 27.028 18.027 41.843 4.275 14.811 6.4 30.134 6.4 46.046 0 32.148-8.157 61.587-24.427 88.176-16.27 26.59-36.68 48.458-61.143 65.61-8.996 6.437-13.53 14.996-13.53 25.75 0 8.596 3.146 16.02 9.362 22.201 6.253 6.255 13.64 9.327 22.198 9.327 7.28 0 13.676-2.342 19.31-7.056 15.873-11.153 30.609-24.14 44.359-38.952 13.715-14.81 25.526-30.866 35.397-48.277 9.875-17.372 17.59-35.915 23.183-55.63 5.559-19.75 8.375-40.157 8.375-61.15 0-21.468-2.82-42.06-8.375-61.808v-0.007z"  horiz-adv-x="1024" />

    
    <glyph glyph-name="xueli1" unicode="&#59003;" d="M512 896a512 512 0 1 1 512-512A512 512 0 0 1 512 896z m200.347826-705.892174a289.391304 289.391304 0 0 0-200.347826-76.8 309.426087 309.426087 0 0 0-210.810435 76.8v178.086957c44.521739-17.586087 92.827826-32.50087 151.373913-52.535653a148.48 148.48 0 0 1 113.975652 0c37.843478 15.582609 89.043478 41.405217 144.473044 65.446957z m131.339131 293.62087V361.73913l27.603478-25.822608-52.313044-55.429565-54.316521 54.53913L801.391304 368.64v95.721739c-155.826087-64.111304-205.245217-84.146087-240.194782-100.173913A107.965217 107.965217 0 0 0 467.478261 361.73913c-34.281739 13.133913-197.89913 72.793043-279.151304 111.304348-54.316522 26.267826-57.655652 42.74087 0 64.556522 76.8 29.161739 203.241739 75.686957 270.246956 101.286957 39.624348 16.027826 60.772174 24.709565 97.502609 6.455652 65.224348-26.935652 211.70087-82.587826 286.052174-113.530435 64.556522-28.048696 22.928696-36.507826 1.558261-48.083478z"  horiz-adv-x="1024" />

    
    <glyph glyph-name="shoujihao1" unicode="&#58888;" d="M736 896H288C199.776 896 128 824.224 128 736v-704c0-88.224 71.776-160 160-160h448c88.224 0 160 71.776 160 160V736c0 88.224-71.776 160-160 160z m96-864c0-52.928-43.072-96-96-96H288c-52.928 0-96 43.072-96 96V736c0 52.928 43.072 96 96 96h448c52.928 0 96-43.072 96-96v-704zM256 96h512V704H256v-608z m64 544h384v-480H320V640zM597.376 42.624h-160a32 32 0 1 1 0-64h160a32 32 0 1 1 0 64z"  horiz-adv-x="1024" />

    
    <glyph glyph-name="shouji" unicode="&#59048;" d="M661.333 853.333H320c-58.88 0-106.667-47.786-106.667-106.666v-725.334c0-58.88 47.787-106.666 106.667-106.666h341.333c58.88 0 106.667 47.786 106.667 106.666V746.667c0 58.88-47.787 106.666-106.667 106.666z m-170.666-896c-35.414 0-64 28.587-64 64s28.586 64 64 64 64-28.586 64-64-28.587-64-64-64z m192 170.667h-384V725.333h384V128z"  horiz-adv-x="1024" />

    
    <glyph glyph-name="xingbie" unicode="&#59075;" d="M960.47 207.285c0-123.922-100.459-224.381-224.381-224.381S511.707 83.363 511.707 207.285c0 112.044 82.213 204.636 189.553 221.408-0.135 1.018-0.6 1.92-0.6 2.974V650.318l-31.376-31.378c-9.226-9.223-24.179-9.223-33.404 0l-16.699 16.701c-9.226 9.226-9.226 24.179 0 33.404l100.206 100.206c9.223 9.223 24.179 9.223 33.402 0l16.701-16.701c0.002 0 0.002-0.002 0.002-0.002l83.505-83.503c9.223-9.226 9.223-24.179 0-33.404l-16.703-16.701c-9.223-9.223-24.179-9.223-33.402 0l-31.376 31.376v-218.649c0-1.053-0.468-1.956-0.6-2.974 107.34-16.772 189.554-109.364 189.554-221.408zM736.088 360.809c-84.788 0-153.524-68.736-153.524-153.524 0-84.79 68.736-153.524 153.524-153.524s153.524 68.734 153.524 153.524c0 84.788-68.736 153.524-153.524 153.524z m-413.933-20.648c0.132-1.018 0.6-1.918 0.6-2.971v-118.095H440.85c13.045 0 23.619-10.574 23.619-23.619v-23.619c0-13.045-10.574-23.619-23.619-23.619H322.755v-118.095c0-13.045-10.574-23.619-23.619-23.619h-23.619c-13.045 0-23.619 10.574-23.619 23.619V148.238H133.802c-13.045 0-23.619 10.574-23.619 23.619v23.619c0 13.045 10.574 23.619 23.619 23.619h118.095V337.19c0 1.053 0.468 1.953 0.6 2.971-107.339 16.772-189.552 109.366-189.552 221.41 0 123.922 100.459 224.381 224.381 224.381s224.381-100.459 224.381-224.381c0-112.044-82.216-204.635-189.552-221.41z m-34.829 374.934c-84.79 0-153.524-68.734-153.524-153.524s68.734-153.524 153.524-153.524c84.788 0 153.524 68.734 153.524 153.524s-68.736 153.524-153.524 153.524z"  horiz-adv-x="1024" />

    
    <glyph glyph-name="feiyongbaoxiao" unicode="&#58913;" d="M824-128H200C90-128 0-38 0 72V696C0 806 90 896 200 896h624c110 0 200-90 200-200v-624c0-110-90-200-200-200zM479.7 81.1c-15.3 14.3-32.6 31-44.2 48.7-27.9 42.1-60.4 111.1-46 186.6 4.5 23.9 13.1 45.3 17.7 66.3v0.9l-154.8 1.8c-8.6 5.4-5.4 45.4-3.5 57.5 12.2 5.5 38.2 1.8 54 1.8h123.8l1.8-0.9c0.6-4.4 1.2-8.8 1.8-13.3l1.8-0.9c6.2 8.3 12.4 16.5 18.6 24.8 13.8 17.7 35.1 37.2 55.7 47.8 0.3 1.5 0.6 2.9 0.9 4.4l-256.5 0.9c-5.5 10.6-4.5 42.9-1.8 56.6 12.2 7.1 59.8 2.7 78.7 2.7h238.8c8.2-3.2 2.4-22.4 4.4-29.2 3.6-3.7 13.3-0.1 20.3 1.8 14.5 3.9 31.4 5.3 48.7 8 11 1.7 22.3-1.6 30.1 0.9l0.9 143.3c-2 8.2-9.6 10-12.4 16.8H161.3c-1.6-3.7-9.3-11-13.3-12.4v-622c12.1-19.9 59.8-13.3 91.1-13.3h263.6c-3.1 10.5-15.8 13.8-23 20.4zM348.8 266c-10.7-6.2-82.3-4.8-98.2-1.8-4.3 8.2-6.3 44-1.8 54.8 0.9 1.5 1.8 2.9 2.7 4.4l94.7-0.9c7.3-5.3 4.9-45.6 2.6-56.5z m296.3 238c-11.5-1.2-23-2.4-34.5-3.5-12.4-3.5-24.8-7.1-37.2-10.6-70.8-26.4-117.3-84.1-138-161-4.9-18.1-6-44-2.7-62.8 3.6-20.2 3.5-35.2 8.8-52.2 20.1-63.7 66.7-109 125.6-134.5 26.4-11.4 54.6-18.6 92.9-18.6h17c16.9 7.9 40.2 9.4 57.5 15.9 54 20.2 96.3 64.5 120.3 115 72.9 153.2-53.1 314.2-209.7 312.3z m92-208.8l1.8-2.7c0.3-8 0.6-15.9 0.9-23.9l-2.7-1.8-64.6-0.9c-3.8-8.1-2-25.9-1.8-37.2 14.9-6.8 48.4-2 67.2-1.8 2.2-4.5 3.4-19.9 0.9-25.7l-0.9-2.7-64.6-0.9c-9.2-7.2 0.8-42-3.5-54-3.8-5.4-26.3-3.3-34.5-2.7-0.6 18.6-1.2 37.2-1.8 55.7-14.2 6.5-52.6 3.2-69 0.9-2.7 4.6-4.9 20.5-1.8 27.4 4.9 4.4 57.5 2 69 1.8l1.8 2.7V263c-5.2 6.7-58.3 0.5-70.8 3.5v25.7c3.3 4.6 47.1 2.9 57.5 2.7l0.9 1.8c-21.2 39.2-42.5 78.4-63.7 117.6V417c1.2 0.3 2.4 0.6 3.5 0.9l32.7-0.9c8.1-4.6 10.5-18.2 15-26.5 13.3-27.4 26.5-54.8 39.8-82.3 1.5-0.6 2.9-1.2 4.4-1.8 18.6 36 37.2 71.9 55.7 107.9 6.2 3.9 27.5 4.3 37.2 2.7l1.8-1.8c-15.6-28.3-31.3-56.6-46.9-84.9-5.9-10-16.8-21.7-18.6-34.5 18.6 0 36.9-0.3 55.1-0.6z"  horiz-adv-x="1024" />

    
    <glyph glyph-name="zhiduguifan" unicode="&#59017;" d="M318.976 280.576h384c20.48 0 34.816 13.824 34.816 34.816s-13.824 34.816-34.816 34.816h-384c-20.48 0-34.816-13.824-34.816-34.816s14.336-34.816 34.816-34.816z m0 147.968h160.256c20.48 0 34.816 13.824 34.816 34.816s-13.824 34.816-34.816 34.816H318.976c-20.48 0-34.816-13.824-34.816-34.816s14.336-34.816 34.816-34.816zM899.072 661.504L674.816 885.76c-7.168 7.168-14.336 10.24-24.064 10.24H211.968c-56.32 0-98.816-42.496-98.816-98.816v-826.368c0-56.32 42.496-98.816 98.816-98.816h598.528c56.32 0 98.816 42.496 98.816 98.816V637.44c0 9.728-3.072 16.896-10.24 24.064z m-716.8 136.192c0 17.92 11.776 29.696 29.696 29.696h372.224v-189.44c0-36.864 29.696-66.56 66.56-66.56h189.44v-600.576c0-17.92-11.776-29.696-29.696-29.696h-599.04c-17.92 0-29.696 11.776-29.696 29.696l0.512 826.88z m471.04-157.696v170.496L823.808 640h-170.496zM318.976 132.096h384c20.48 0 34.816 13.824 34.816 34.816s-13.824 34.816-34.816 34.816h-384c-20.48 0-34.816-13.824-34.816-34.816s14.336-34.816 34.816-34.816z"  horiz-adv-x="1024" />

    
    <glyph glyph-name="mima" unicode="&#58997;" d="M793.8048 539.648c-11.264 135.168-120.4224 241.664-253.3376 241.664s-242.0736-106.496-253.1328-241.664H282.624c-36.864 0-66.7648-31.1296-66.7648-69.4272v-387.6864c0-38.2976 29.9008-69.4272 66.7648-69.4272h510.7712c36.6592 0 66.7648 31.1296 66.7648 69.4272V470.2208c0 38.0928-29.696 69.2224-66.3552 69.4272zM540.4672 730.7264c105.8816 0 192.512-83.968 203.5712-191.0784H336.896c11.264 107.1104 97.6896 191.0784 203.5712 191.0784z m273.6128-648.192c0-11.6736-9.4208-21.504-20.6848-21.504H282.624c-11.264 0-20.6848 9.8304-20.6848 21.504V470.2208c0 11.8784 9.216 21.504 20.6848 21.504h26.8288c0.4096 0 0.8192-0.2048 1.024-0.2048 0.4096 0 0.6144 0.2048 1.024 0.2048h457.9328c0.4096 0 0.8192-0.2048 1.024-0.2048 0.4096 0 0.8192 0.2048 1.024 0.2048h21.7088c11.4688 0 20.6848-9.6256 20.6848-21.504v-387.6864z m0 0M539.648 359.0144c-25.3952 0-46.08-21.504-46.08-47.9232 0-20.6848 12.9024-37.888 30.5152-44.6464-0.2048-1.024-0.6144-2.048-0.6144-3.2768v-47.9232c0-9.216 7.168-16.5888 15.9744-16.5888s15.9744 7.5776 15.9744 16.5888V263.168c0 1.024-0.4096 2.048-0.6144 3.2768 17.8176 6.7584 30.72 23.9616 30.72 44.6464 0.2048 26.4192-20.48 47.9232-45.8752 47.9232z m0 0"  horiz-adv-x="1024" />

    
    <glyph glyph-name="mp-yubaoming" unicode="&#58885;" d="M843.3 758.3c-48 48-124.1 50.7-177 10.8-7-5.3-5.8-16.1 2.1-19.8 69.9-33 137.3-96.6 168.7-160.5 3.8-7.8 14.6-8.7 19.7-1.7 38.5 52.2 33 124.7-13.5 171.2zM738.1 0c-6.8 0-62.8 23.1-91 34.9-9.5 4-19.8 3-29.5-0.5-58.4-20.8-142.9-22.1-209.1 2-8.8 3.2-18.5 2.9-27.2-0.7-27.4-11.5-86.2-35.7-93.1-35.7-9.1 0-16.3 3.6-21.8 9.1-5.4 5.4-9.1 14.5-9.1 21.8 0 9.1 33.4 96.3 30.8 98.1-34.5 24.8-62.9 50.1-85.2 88.7-30.8 52.6-45.4 114.3-45.4 176 0 49 9.1 94.3 27.2 139.7 18.1 41.7 43.5 79.8 76.2 114.3 32.7 32.7 70.8 58.1 114.3 76.2s90.7 27.2 139.7 27.2c49 0 94.3-9.1 139.7-27.2 41.7-18.1 79.8-43.5 114.3-76.2 32.7-32.7 58.1-70.8 76.2-114.3s27.2-90.7 27.2-139.7c0-61.7-16.3-123.4-45.4-176-22.5-39-51.1-74.2-86-101.6-7.4-5.8 31.5-76.2 31.5-85.2 0-9.1-3.6-16.3-9.1-23.6-8.9-3.7-18-7.3-25.2-7.3zM679 128.8c44.4 27.3 82 66.7 107.7 111.1 27.3 46.2 41 100.9 41 153.8 0 42.7-8.5 83.8-23.9 121.4-17.1 39.3-41 71.8-68.4 100.9-29.1 29.1-61.5 51.3-99.1 66.7-39.3 17.1-80.3 23.9-121.4 23.9s-83.8-8.5-121.4-23.9C354.2 667.2 320 645 291 615.9c-29.1-29.1-51.3-61.5-66.7-99.1-17.1-39.3-23.9-80.3-23.9-121.4 0-54.7 13.7-107.7 41-153.8 25.6-46.2 63.2-83.8 107.7-111.1l32.5-18.8c41-18.8 87.2-29.1 133.3-29.1 46.2 0 90.6 10.3 133.3 29.1l30.8 17.1zM647.8 178.9c36.1 22.2 66.6 54.1 87.4 90.1 22.2 37.4 33.3 81.8 33.3 124.8 0 34.7-6.9 68-19.4 98.5-13.9 31.9-33.3 58.2-55.5 81.8-23.6 23.6-49.9 41.6-80.4 54.1-31.9 13.9-65.2 19.4-98.5 19.4s-68-6.9-98.5-19.4c-31.9-12.5-59.6-30.5-83.2-54.1s-41.6-49.9-54.1-80.4c-13.9-31.9-19.4-65.2-19.4-98.5 0-44.4 11.1-87.4 33.3-124.8 20.8-37.4 51.3-67.9 87.4-90.1l26.3-15.3c33.3-15.3 70.7-23.6 108.2-23.6 37.4 0 73.5 8.3 108.2 23.6l24.9 13.9z m-5.5 144.9H498.5c-9.2 0-16.8 4.6-23 10.7-6.1 6.1-7.7 12.2-7.7 19.9v176c0 16.8 13.8 30.6 30.6 30.6s30.6-13.8 30.6-30.6v-143.8h113.1c7.7 0 15.3-3.1 21.4-9.2 6.1-6.1 9.2-13.8 9.2-21.4 0.2-18.5-13.6-32.2-30.4-32.2zM182.7 759.4c-46.6-46.6-52-119-13.4-171.3 5.1-7 15.9-6 19.7 1.7 31.4 63.9 98.7 127.6 168.7 160.5 7.9 3.7 9.1 14.5 2.1 19.8-53 40-129.1 37.4-177.1-10.7z"  horiz-adv-x="1024" />

    
    <glyph glyph-name="jituanxinxi" unicode="&#58887;" d="M512 384m-512 0a512 512 0 1 1 1024 0 512 512 0 1 1-1024 0ZM512 384m-409.6 0a409.6 409.6 0 1 1 819.2 0 409.6 409.6 0 1 1-819.2 0ZM431.104 271.616c15.872-100.608 51.2-159.232 78.336-159.232 27.136 0 62.464 58.624 78.336 159.232h-156.672z m203.52 112.384c0-23.552-1.28-47.104-3.328-70.4h140.032c5.888 22.528 9.472 45.824 9.472 70.4 0 24.32-3.584 47.872-9.472 70.4h-140.032c2.304-23.296 3.328-47.104 3.328-70.4z m-38.656 0c0 25.088-1.28 48.384-3.328 70.4h-166.656c-2.048-22.016-3.328-45.312-3.328-70.4s1.28-48.384 3.328-70.4h166.656c2.048 22.016 3.328 45.312 3.328 70.4z m30.464 112.384h130.048c-33.536 73.984-99.072 130.048-179.2 150.784 23.552-36.352 40.192-90.368 49.152-150.784z m-234.24-224.768h-130.048c33.536-73.984 99.072-130.304 179.2-150.784-23.296 36.352-40.192 90.368-49.152 150.784z m234.24 0c-8.96-60.416-25.856-114.432-49.152-150.784 79.872 20.736 145.664 76.8 179.2 150.784h-130.048zM247.296 454.4c-5.888-22.528-9.472-45.824-9.472-70.4 0-24.32 3.584-47.872 9.472-70.4h140.032c-2.048 23.296-3.328 46.848-3.328 70.4s1.28 47.104 3.328 70.4H247.296z m144.896 41.984c8.96 60.416 25.6 114.432 49.152 150.784-79.872-20.736-145.664-76.8-179.2-150.784h130.048z m195.328 0C571.904 596.992 536.576 655.36 509.44 655.36c-27.136 0-62.464-58.624-78.336-159.232h156.416z"  horiz-adv-x="1024" />

    
    <glyph glyph-name="xueli" unicode="&#58905;" d="M102.4 896h819.2C978.2 896 1024 850.2 1024 793.6v-819.2c0-56.6-45.8-102.4-102.4-102.4H102.4C45.8-128 0-82.2 0-25.6V793.6C0 850.2 45.8 896 102.4 896z m51.2-51.2C97 844.8 51.2 799 51.2 742.4v-716.8c0-56.6 45.8-102.4 102.4-102.4h716.8c56.6 0 102.4 45.8 102.4 102.4V742.4C972.8 799 927 844.8 870.4 844.8H153.6zM843.5 485.8v-218.1h-59V450.9L512.5 290 133 514.5 512.5 739 892 514.5l-48.5-28.7z m-93.7-106.3V29H275.2V379.8l237.5-140.5 236.9 140.2c0.1-0.1 0.1-0.1 0.2 0z"  horiz-adv-x="1024" />

    
    <glyph glyph-name="paiming-copy" unicode="&#58886;" d="M192 351.4v-256H64v256h128m0 64H64c-35.3 0-64-28.7-64-64v-256c0-35.3 28.7-64 64-64h128c35.3 0 64 28.7 64 64v256c0 35.3-28.7 64-64 64zM576 799.4v-704H448v704h128m0 64H448c-35.3 0-64-28.7-64-64v-704c0-35.3 28.7-64 64-64h128c35.3 0 64 28.7 64 64v704c0 35.3-28.7 64-64 64zM960 607.4v-512H832v512h128m0 64H832c-35.3 0-64-28.7-64-64v-512c0-35.3 28.7-64 64-64h128c35.3 0 64 28.7 64 64v512c0 35.3-28.7 64-64 64zM992-96.60000000000002H32c-17.7 0-32 14.3-32 32s14.3 32 32 32h960c17.7 0 32-14.3 32-32s-14.3-32-32-32z"  horiz-adv-x="1024" />

    
    <glyph glyph-name="tongzhi" unicode="&#58880;" d="M324.266667 659.393939c0 14.351515 11.636364 25.987879 25.987878 25.987879s25.987879-11.636364 25.987879-25.987879-11.636364-25.987879-25.987879-25.987878c-14.351515-0.129293-25.987879 11.507071-25.987878 25.987878z m12.8 0c0-7.369697 5.947475-13.317172 13.317171-13.317171s13.317172 5.947475 13.317172 13.317171c0 7.240404-5.947475 13.317172-13.317172 13.317172-7.369697-0.129293-13.317172-6.076768-13.317171-13.317172zM772.137374 591.90303h11.377778v11.377778c0 3.10303 2.456566 5.559596 5.559595 5.559596s5.559596-2.456566 5.559596-5.559596v-11.377778h11.377778c3.10303 0 5.559596-2.456566 5.559596-5.559596s-2.456566-5.559596-5.559596-5.559596h-11.377778v-11.377777c0-3.10303-2.456566-5.559596-5.559596-5.559596-2.973737 0-5.559596 2.456566-5.559595 5.559596v11.377777h-11.377778c-2.973737 0-5.559596 2.456566-5.559596 5.559596s2.585859 5.559596 5.559596 5.559596zM143.127273 487.951515h11.377778v11.377778c0 3.10303 2.456566 5.559596 5.559595 5.559596s5.559596-2.456566 5.559596-5.559596v-11.377778h11.377778c3.10303 0 5.559596-2.456566 5.559596-5.559596s-2.456566-5.559596-5.559596-5.559596H165.494949v-11.377778c0-3.10303-2.456566-5.559596-5.559595-5.559596-2.973737 0-5.559596 2.456566-5.559596 5.559596v11.377778h-11.377778c-2.973737 0-5.559596 2.456566-5.559596 5.559596 0.129293 3.10303 2.715152 5.559596 5.688889 5.559596zM838.076768 318.577778h13.317171v13.317171c0 3.490909 2.844444 6.464646 6.464647 6.464647 3.490909 0 6.464646-2.844444 6.464646-6.464647v-13.317171h13.317172c3.490909 0 6.464646-2.844444 6.464647-6.464647s-2.844444-6.464646-6.464647-6.464646h-13.317172v-13.317172c0-3.490909-2.844444-6.464646-6.464646-6.464646-3.490909 0-6.464646 2.844444-6.464647 6.464646v13.317172h-13.317171c-3.490909 0-6.464646 2.844444-6.464647 6.464646 0.129293 3.620202 2.973737 6.464646 6.464647 6.464647zM675.943434 649.69697c0-5.30101 4.266667-9.567677 9.567677-9.567677s9.567677 4.266667 9.567677 9.567677c0 5.30101-4.266667 9.567677-9.567677 9.567676-5.30101 0-9.567677-4.266667-9.567677-9.567676zM243.458586 599.143434c0-7.111111 5.688889-12.8 12.8-12.8s12.8 5.688889 12.8 12.8-5.688889 12.8-12.8 12.8-12.8-5.688889-12.8-12.8zM748.735354 507.991919c0-4.525253 2.456566-8.791919 6.464646-11.119192 4.008081-2.327273 8.921212-2.327273 12.8 0 4.008081 2.327273 6.464646 6.593939 6.464646 11.119192s-2.456566 8.791919-6.464646 11.119192c-4.008081 2.327273-8.921212 2.327273-12.8 0-4.008081-2.19798-6.464646-6.464646-6.464646-11.119192zM735.935354 390.852525c0 14.351515 11.636364 25.987879 25.987878 25.987879s25.987879-11.636364 25.987879-25.987879-11.636364-25.987879-25.987879-25.987879c-14.222222 0-25.987879 11.765657-25.987878 25.987879z m12.929292 0c0-7.369697 5.947475-13.317172 13.317172-13.317171 7.369697 0 13.317172 5.947475 13.317172 13.317171 0 7.240404-5.947475 13.317172-13.317172 13.317172-7.369697 0-13.317172-5.947475-13.317172-13.317172zM254.448485 389.30101c1.422222 1.422222 3.620202 1.422222 5.042424 0 0.646465-0.646465 1.034343-1.551515 1.034344-2.456566s-0.387879-1.810101-1.034344-2.456565l-11.377778-11.377778c-0.646465-0.646465-1.551515-1.034343-2.456565-1.034343s-1.810101 0.387879-2.456566 1.034343c-1.422222 1.422222-1.422222 3.620202 0 5.042424l11.248485 11.248485z m-30.125253-29.995959c0.646465 0.646465 1.551515 1.034343 2.456566 1.034343s1.810101-0.387879 2.456566-1.034343c1.422222-1.422222 1.422222-3.620202 0-5.042425l-11.377778-11.377778c-0.646465-0.646465-1.551515-1.034343-2.456566-1.034343a3.532283 3.532283 0 0 0-3.490909 3.490909c0 0.905051 0.387879 1.810101 1.034344 2.456566l11.377777 11.507071z m2.585859 12.541414c-0.905051 0-1.810101 0.387879-2.456566 1.034343l-11.377778 11.377778c-0.646465 0.646465-1.034343 1.551515-1.034343 2.456566s0.387879 1.810101 1.034343 2.456565c1.422222 1.422222 3.620202 1.422222 5.042425 0l11.377777-11.377778c1.422222-1.422222 1.422222-3.620202 0-5.042424-0.775758-0.387879-1.680808-0.905051-2.585858-0.90505z m21.074747-12.541414l11.377778-11.377778c0.646465-0.646465 1.034343-1.551515 1.034344-2.456566s-0.387879-1.810101-1.034344-2.456566-1.551515-1.034343-2.456565-1.034343-1.810101 0.387879-2.456566 1.034343l-11.377778 11.377778c-1.422222 1.422222-1.422222 3.620202 0 5.042424 1.292929 1.163636 3.620202 1.163636 4.913131-0.129292z m-2.197979 6.852525c0 1.939394 1.551515 3.620202 3.490909 3.620202h16.032323c1.939394 0 3.490909-1.551515 3.490909-3.620202 0-1.939394-1.551515-3.490909-3.490909-3.490909h-16.032323c-1.810101 0-3.490909 1.551515-3.490909 3.490909zM206.868687 369.777778h16.032323c1.939394 0 3.620202-1.551515 3.620202-3.620202 0-1.939394-1.551515-3.490909-3.620202-3.490909H206.868687c-1.939394 0-3.620202 1.551515-3.620202 3.490909 0.129293 1.939394 1.680808 3.620202 3.620202 3.620202z m29.349495 29.220202c1.939394 0 3.620202-1.551515 3.620202-3.490909v-16.032324c0-1.939394-1.551515-3.490909-3.620202-3.490909-1.939394 0-3.490909 1.551515-3.490909 3.490909v16.032324c-0.129293 1.939394 1.551515 3.490909 3.490909 3.490909z m0-42.537374c1.939394 0 3.620202-1.551515 3.620202-3.620202v-16.032323c0-1.939394-1.551515-3.620202-3.620202-3.620202-1.939394 0-3.490909 1.551515-3.490909 3.620202v16.032323c-0.129293 2.068687 1.551515 3.620202 3.490909 3.620202zM546.262626 736.064646c1.422222 1.422222 3.620202 1.422222 5.042425 0 0.646465-0.646465 1.034343-1.551515 1.034343-2.456565s-0.387879-1.810101-1.034343-2.456566l-11.377778-11.377778c-0.646465-0.646465-1.551515-1.034343-2.456566-1.034343s-1.810101 0.387879-2.456566 1.034343c-1.422222 1.422222-1.422222 3.620202 0 5.042425l11.248485 11.248484zM516.266667 705.939394c0.646465 0.646465 1.551515 1.034343 2.456565 1.034343s1.810101-0.387879 2.456566-1.034343c1.422222-1.422222 1.422222-3.620202 0-5.042424l-11.377778-11.377778c-0.646465-0.646465-1.551515-1.034343-2.456565-1.034344a3.532283 3.532283 0 0 0-3.49091 3.49091c0 0.905051 0.387879 1.810101 1.034344 2.456565l11.377778 11.507071z m2.585858 12.670707c-0.905051 0-1.810101 0.387879-2.456565 1.034343l-11.377778 11.377778c-0.646465 0.646465-1.034343 1.551515-1.034344 2.456566s0.387879 1.810101 1.034344 2.456566c1.422222 1.422222 3.620202 1.422222 5.042424 0l11.377778-11.377778c1.422222-1.422222 1.422222-3.620202 0-5.042424-0.775758-0.646465-1.680808-0.905051-2.585859-0.905051z m21.074748-12.670707l11.377778-11.377778c0.646465-0.646465 1.034343-1.551515 1.034343-2.456565s-0.387879-1.810101-1.034343-2.456566-1.551515-1.034343-2.456566-1.034344-1.810101 0.387879-2.456566 1.034344l-11.377778 11.377778c-1.422222 1.422222-1.422222 3.620202 0 5.042424 1.292929 1.292929 3.620202 1.292929 4.913132-0.129293z m-2.068687 6.852525c0 1.939394 1.551515 3.620202 3.490909 3.620202h16.032323c1.939394 0 3.490909-1.551515 3.490909-3.620202 0-1.939394-1.551515-3.490909-3.490909-3.490909h-16.032323c-1.939394 0-3.490909 1.551515-3.490909 3.490909z m-38.917172 3.490909h16.032323c1.939394 0 3.620202-1.551515 3.620202-3.620202 0-1.939394-1.551515-3.490909-3.620202-3.490909h-16.032323c-1.939394 0-3.620202 1.551515-3.620202 3.490909s1.551515 3.620202 3.620202 3.620202z m29.220202 29.349495c1.939394 0 3.620202-1.551515 3.620202-3.490909v-16.032323c0-1.939394-1.551515-3.490909-3.620202-3.490909-1.939394 0-3.490909 1.551515-3.490909 3.490909V742.141414c-0.129293 1.810101 1.422222 3.490909 3.490909 3.490909z m0-42.537374c1.939394 0 3.620202-1.551515 3.620202-3.620202v-16.032323c0-1.939394-1.551515-3.620202-3.620202-3.620202-1.939394 0-3.490909 1.551515-3.490909 3.620202V699.474747c-0.129293 2.068687 1.422222 3.620202 3.490909 3.620202zM732.185859 102.529293H311.337374c-12.670707 0-23.014141 10.472727-23.014142 23.40202l57.535354 99.943434V385.551515c0 98.391919 79.127273 178.812121 175.838384 178.812121s175.838384-80.420202 175.838384-178.812121v-159.676768l57.535353-99.943434c0.129293-12.929293-10.214141-23.40202-22.884848-23.40202zM456.40404 583.49899c0 28.056566 22.755556 50.812121 50.812122 50.812121 28.056566 0 50.812121-22.755556 50.812121-50.812121M557.89899 573.931313c-5.30101 0-9.567677 4.39596-9.567677 9.567677 0 22.626263-18.488889 41.244444-41.244444 41.244444-22.626263 0-41.244444-18.488889-41.244445-41.244444 0-5.30101-4.39596-9.567677-9.567677-9.567677-5.30101 0-9.567677 4.39596-9.567676 9.567677 0 33.228283 27.151515 60.379798 60.379798 60.379798 33.357576 0 60.379798-27.151515 60.379798-60.379798 0-5.30101-4.266667-9.567677-9.567677-9.567677zM578.973737 103.305051c0-39.692929-32.193939-71.886869-71.886868-71.886869s-71.886869 32.193939-71.886869 71.886869M507.086869 21.850505c-44.993939 0-81.454545 36.460606-81.454546 81.454546 0 5.30101 4.39596 9.567677 9.567677 9.567676 5.30101 0 9.567677-4.39596 9.567677-9.567676 0-34.391919 27.927273-62.189899 62.189899-62.189899 34.391919 0 62.189899 27.927273 62.189899 62.189899 0 5.30101 4.39596 9.567677 9.567677 9.567676 5.30101 0 9.567677-4.39596 9.567676-9.567676 0.258586-44.864646-36.331313-81.454545-81.195959-81.454546zM827.345455 21.850505h-22.884849c-5.30101 0-9.567677 4.39596-9.567677 9.567677 0 5.30101 4.39596 9.567677 9.567677 9.567677h22.884849c5.30101 0 9.567677-4.39596 9.567676-9.567677s-4.266667-9.567677-9.567676-9.567677z m-611.167677 0H186.828283c-5.30101 0-9.567677 4.39596-9.567677 9.567677 0 5.30101 4.39596 9.567677 9.567677 9.567677h29.220202c5.30101 0 9.567677-4.39596 9.567677-9.567677 0.129293-5.171717-4.137374-9.567677-9.438384-9.567677z m559.967677 0H248.50101c-5.30101 0-9.567677 4.39596-9.567677 9.567677 0 5.30101 4.39596 9.567677 9.567677 9.567677h527.644445c5.30101 0 9.567677-4.39596 9.567676-9.567677s-4.137374-9.567677-9.567676-9.567677zM703.094949 392.016162c0 71.369697-49.131313 132.008081-120.242424 159.935353 50.941414-56.371717 64.775758-141.317172 62.965657-198.981818l-3.749495-121.018182c-0.129293-6.593939 2.068687-13.058586 6.464646-17.971717l36.072728-40.985859c13.705051-15.644444 4.525253-40.210101-16.032324-43.054545l-150.626262-20.945455H738.262626c12.8 0 23.40202 10.472727 23.40202 23.402021l-58.569697 99.943434V392.016162zM350.771717 493.511111c-1.292929 0-2.585859 0.258586-3.878788 0.775758-4.783838 2.068687-7.111111 7.757576-5.042424 12.670707 4.137374 9.567677 10.60202 18.230303 18.747475 24.824242 4.137374 3.361616 10.214141 2.715152 13.446464-1.292929 3.361616-4.137374 2.715152-10.214141-1.292929-13.446465-5.688889-4.654545-10.343434-10.731313-13.317172-17.454545-1.422222-4.008081-4.913131-6.076768-8.662626-6.076768zM730.763636 92.961616H283.539394c-18.747475 0-34.133333 15.256566-34.133333 34.133333 0 1.680808 0.387879 3.361616 1.292929 4.783839l59.862626 102.270707v164.20202c0 26.892929 5.430303 53.010101 16.032323 77.575758 2.068687 4.783838 7.757576 7.111111 12.670707 5.042424 4.783838-2.068687 7.111111-7.757576 5.042425-12.541414-9.567677-22.238384-14.480808-45.640404-14.480808-69.947475v-166.917172c0-1.680808-0.387879-3.361616-1.29293-4.783838L268.929293 124.89697c1.034343-7.111111 7.240404-12.541414 14.610101-12.541414h447.224242c7.369697 0 13.575758 5.430303 14.610101 12.541414l-59.60404 101.882828c-0.775758 1.551515-1.292929 3.10303-1.292929 4.783838v166.787879c0 97.745455-79.515152 177.389899-177.389899 177.389899-40.468687 0-80.290909-14.222222-111.838384-39.951515-4.137374-3.361616-10.214141-2.715152-13.446465 1.292929-3.361616 4.137374-2.715152 10.214141 1.292929 13.446465 35.038384 28.573737 78.99798 44.218182 123.99192 44.218182 108.347475 0 196.525253-88.177778 196.525252-196.525253v-164.20202l59.862626-102.270707c0.775758-1.551515 1.292929-3.232323 1.29293-4.783838 0-18.747475-15.256566-34.00404-34.004041-34.004041zM379.60404 264.791919c-5.30101 0-9.567677 4.39596-9.567676 9.567677V391.757576c0 5.30101 4.39596 9.567677 9.567676 9.567677s9.567677-4.39596 9.567677-9.567677v-117.39798c0-5.30101-4.266667-9.567677-9.567677-9.567677zM381.543434 414.90101c-0.646465 0-1.292929 0.129293-1.939394 0.129293-5.171717 1.034343-8.533333 6.076768-7.498989 11.377778 3.620202 18.10101 8.016162 29.349495 13.058585 33.228283 4.137374 3.361616 10.214141 2.715152 13.446465-1.551516 3.232323-3.878788 2.715152-9.567677-0.90505-13.058585-1.810101-2.715152-4.783838-13.058586-6.723233-22.626263-1.034343-4.39596-5.042424-7.49899-9.438384-7.49899z"  horiz-adv-x="1024" />

    
    <glyph glyph-name="NextPage" unicode="&#58919;" d="M765.34384766 359.07070312999997c0.60029297 1.15927734 1.56884766 2.12783203 2.09355468 3.32490234 10.27353516 21.37587891 6.90996094 47.52421875-11.28164062 64.71298828l-412.44785156 390.09814453c-22.48945313 21.25986328-57.94541016 20.25087891-79.24394532-2.20693358-21.25898438-22.48945313-20.28339844-57.94541016 2.2069336-79.24394533l370.07050781-350.08330077-368.61328125-355.27763672c-22.26884766-21.4875-22.94033203-56.94433594-1.45898438-79.24570313 10.98544922-11.43632813 25.66757813-17.14921875 40.35234375-17.14921874 14.00537109 0 28.01953125 5.22685547 38.89335938 15.68847655l408.70722656 393.91347657c0.7875 0.78134766 1.08369141 1.86328125 1.86855469 2.68505859 0.59853516 0.56249999 1.23398437 0.97382813 1.83076172 1.57236329 3.17548828 3.32666016 4.85595703 7.39863282 7.02246094 11.21132812v0zM765.34384766 359.07070312999997z"  horiz-adv-x="1024" />

    
    <glyph glyph-name="xingbie1" unicode="&#58904;" d="M512.448 896h-0.288C229.472 896.096 0.096 667.008 0 384.256S228.992-127.808 511.744-128c282.784-0.096 512.064 228.992 512.256 511.744v0.192C1024 666.624 795.008 895.872 512.448 896zM459.84 216.224l-84.8-0.064 0.096-96c0.032-14.944-12.8-27.04-28.608-27.072-15.808 0-28.672 12.096-28.672 27.04l-0.064 95.968-87.04-0.064c-15.808 0-28.64 12.096-28.64 27.04-0.032 14.944 12.768 27.04 28.608 27.072l87.04 0.064-0.064 66.304v7.52c-83.84 12.896-147.936 81.344-148 164.16-0.064 92.064 78.88 166.752 176.352 166.816 97.472 0.096 176.544-74.496 176.64-166.528 0.064-82.848-63.904-151.424-147.712-164.416v-7.552l0.064-66.304 84.8 0.064c15.808 0 28.64-12.096 28.608-26.976 0.032-14.944-12.768-27.072-28.608-27.072z m218.176-122.944c-97.472-0.064-176.576 74.496-176.64 166.56-0.064 82.848 63.904 151.392 147.712 164.416l-0.128 157.92c-25.184-24.256-53.408-51.584-53.408-51.584a29.312 29.312 0 0 0-20.384-8.192c-15.84 0-28.672 12.096-28.672 27.04 0 7.328 3.136 13.92 8.16 18.816l-0.128 0.064s63.168 61.12 85.088 81.92c16.992 16.096 33.664 18.112 44.416 16.864 17.568-1.952 28.48-12.608 33.216-18.464l83.392-80.064a25.952 25.952 0 0 0-0.288-38.24 29.312 29.312 0 0 0-20.064-7.776 29.536 29.536 0 0 0-20.448 8.096L706.272 582.08l0.128-157.792c83.808-12.864 147.872-81.376 147.968-164.192 0.064-92.064-78.88-166.752-176.352-166.816z"  horiz-adv-x="1024" />

    
    <glyph glyph-name="tousujubao" unicode="&#59053;" d="M509.66983111 117.77820444999998c4.66033778 0 9.32067555 0 13.98101334 0.58254222 44.85575111 5.24288 82.72099555 36.11761778 96.70200888 78.6432 1.16508445 2.91271111-0.58254222 6.40796445-3.49525333 8.15559111-2.91271111 1.16508445-6.99050667 0-8.73813333-2.91271111 0 0-18.05880889-28.54456889-87.38133334-37.86524445-9.90321778-1.16508445-19.80643555-2.33016889-29.70965333-2.33016889-48.35100445 0-69.90506667 18.05880889-70.48760889 18.05880889-2.33016889 2.33016889-6.40796445 2.33016889-8.73813333 0-2.33016889-2.33016889-2.91271111-5.82542222-1.16508445-8.73813333 20.97152-32.03982222 58.83676445-53.59388445 99.03217778-53.59388444z m371.66193778 424.09073777h-1.74762667c-40.77795555 173.59758222-195.15164445 302.92195555-380.98261333 302.92195556-190.49130667 0-348.94279111-136.31488-384.47786667-316.90296889-34.36999111-5.82542222-60.00184889-35.53507555-60.00184889-71.65269334v-143.30538666c0-40.19541333 32.62236445-72.81777778 72.81777778-72.81777778 22.71914667 0 42.52558222 10.48576 55.92405334 26.79694222 32.03982222-84.46862222 97.86709333-152.04352 181.1706311-188.16113778 0 0.58254222 1.74762667 3.49525333 3.49525334 5.82542223 1.16508445 1.74762667 2.91271111 2.91271111 4.07779556 2.91271111 1.16508445 0 2.33016889-0.58254222 3.49525333-1.16508444-19.22389333 13.98101333-88.54641778 86.79879111-103.69251556 188.16113777-6.40796445 44.85575111 27.37948445 88.54641778 66.40981333 95.53692445 63.49710222 11.65084445 126.41166222 25.04931555 189.32622223 36.11761778 40.19541333 6.99050667 67.57489778 29.12711111 84.46862222 65.24472888 4.07779555 8.73813333 9.90321778 25.63185778 12.23338667 50.68117334 0.58254222 3.49525333 3.49525333 6.40796445 7.57304888 6.40796444 2.33016889 0 4.66033778-1.16508445 6.40796445-3.49525333l1.74762667 1.16508444c25.04931555-35.53507555 74.56540445-115.34336 81.55591111-198.64689777 8.15559111-95.53692445 3.49525333-160.78165333-70.48760889-227.7740089h-0.58254222c-1.16508445-1.16508445-1.74762667-2.33016889-1.74762667-4.07779555 0-2.33016889 1.16508445-4.07779555 2.91271111-4.66033778 0.58254222 0 1.16508445-0.58254222 1.74762667-0.58254222h2.91271111c1.16508445 0.58254222 2.33016889 1.16508445 2.91271111 1.74762667a337.87448889 337.87448889 0 0 1 159.03402667 190.49130666c11.06830222-16.31118222 27.96202667-27.37948445 47.18592-30.87473778-31.45728-140.97521778-158.45148445-228.93909333-315.73788445-242.33756444-9.32067555 23.30168889-32.62236445 39.61287111-60.00184889 39.61287111-35.53507555 0-64.66218667-27.96202667-64.66218666-62.33201777 0-34.36999111 29.12711111-62.33201778 64.66218666-62.33201778 28.54456889 0 53.01134222 18.05880889 61.16693334 43.10812444 182.33571555 14.56355555 328.55381333 121.75132445 358.84600888 288.3584 26.79694222 11.06830222 46.02083555 37.28270222 46.02083556 67.57489778V467.88608c1.16508445 40.77795555-32.62236445 73.98286222-73.98286222 73.98286222z m-66.99235556-41.94304c-47.76846222 126.99420445-170.68487111 218.45333333-315.73788444 218.45333333-144.47047111 0-266.80433778-90.29404445-315.15534222-216.70570666-2.33016889 2.91271111-5.24288 5.24288-8.15559112 7.57304889C202.67008 663.62026667 336.65479111 780.71125333 498.60152889 780.71125333c160.78165333 0 294.76636445-115.92590222 322.72839111-269.13450666-2.91271111-3.49525333-5.24288-7.57304889-6.99050667-11.65084445z m-450.30513778-421.76056889z m0 0"  horiz-adv-x="1024" />

    
    <glyph glyph-name="youhuihuodongx" unicode="&#59135;" d="M512 384m-512 0a512 512 0 1 1 1024 0 512 512 0 1 1-1024 0ZM490.544762 604.40381c17.554286-10.727619 17.554286-29.257143-5.851429-29.257143h-83.870476c-22.430476 0-22.430476 23.405714-20.48 41.935238 1.950476 18.529524 8.777143 44.860952 30.232381 32.182857 25.35619-14.628571 67.291429-37.059048 79.969524-44.860952zM243.809524 512.731429c0 17.554286 5.851429 27.306667 32.182857 26.331428h191.146667v-110.201905H275.992381c-25.35619 0-32.182857 9.752381-32.182857 29.257143v54.613334z m27.306666-331.580953V392.777143h205.775239V115.809524H347.184762c-51.687619 0-76.068571 23.405714-76.068572 65.340952zM780.190476 509.805714v-51.687619c0-19.504762-6.826667-29.257143-33.158095-29.257143H554.910476V539.062857h191.146667c26.331429 0 34.133333-10.727619 34.133333-29.257143zM645.607619 616.106667c1.950476-18.529524 1.950476-41.935238-21.455238-41.935238h-84.845714c-23.405714 0-23.405714 18.529524-5.851429 29.257142 12.678095 7.801905 55.588571 30.232381 80.944762 43.885715 22.430476 13.653333 29.257143-12.678095 31.207619-31.207619z m-88.746667-223.329524h196.998096v-209.676191c0-41.935238-23.405714-68.266667-73.142858-68.266666H556.860952V392.777143z"  horiz-adv-x="1024" />

    
    <glyph glyph-name="gongzichaxun" unicode="&#59217;" d="M820.16 360.576a197.12 197.12 0 1 1 0-394.24 197.12 197.12 0 0 1 0 394.24z m60.288-178.88c7.936-0.704 12.224-4.608 12.992-11.904-0.64-7.168-5.056-11.136-12.992-11.904h-39.808v-18.24h39.808c7.936-0.64 12.224-4.608 12.992-11.904-0.64-7.168-5.056-11.136-12.992-11.84h-39.808v-33.344c-0.64-12.224-7.552-18.304-20.416-18.304-12.992 0-19.776 6.08-20.352 18.304v33.344h-39.872c-7.872 0.704-12.16 4.608-12.992 11.84 0.704 7.232 4.992 11.264 12.992 11.904h39.872v18.24h-39.872c-7.872 0.768-12.16 4.672-12.992 11.904 0.704 7.232 4.992 11.2 12.992 11.904h22.656l-34.496 48.512a18.56 18.56 0 0 0-4.288 11.904c1.472 12.16 8.256 19.072 20.352 20.416a21.376 21.376 0 0 0 16.192-8.64l39.808-57.024 39.872 57.024a21.632 21.632 0 0 0 16.128 8.64c12.16-1.472 19.072-8.256 20.416-20.416a19.392 19.392 0 0 0-4.288-11.904l-34.496-48.512h22.592z m0 0M622.912 163.456a197.12 197.12 0 0 0 320.512 153.728V675.968c0 31.296-25.6 56.896-56.896 56.896H63.488c-31.296 0-56.896-25.6-56.896-56.896v-517.696c0-31.232 25.6-56.896 56.896-56.896H632.96a198.72 198.72 0 0 0-10.048 62.08zM113.92 648.896h722.176a28.416 28.416 0 0 0 0-56.896H113.92a28.416 28.416 0 0 0 0 56.896z m55.68-472.832h-55.68a28.416 28.416 0 0 0 0 56.896h55.68a28.416 28.416 0 0 0 0-56.896z m142.656 0H256.64c-15.68 0-28.48 12.736-28.48 28.416s12.8 28.416 28.48 28.416h55.616a28.416 28.416 0 0 0 0-56.832z m142.592 0h-55.552c-15.68 0-28.48 12.736-28.48 28.416s12.8 28.416 28.48 28.416h55.616a28.48 28.48 0 0 0-0.064-56.832z m41.216 297.344H113.92a28.48 28.48 0 0 0 0 56.896h382.144a28.48 28.48 0 0 0 0-56.896z m0 0"  horiz-adv-x="1024" />

    


  </font>
</defs>
</svg>
